<svg xmlns="http://www.w3.org/2000/svg" viewBox="0 0 128 128"><defs><radialGradient id="g" cx="35%" cy="30%" r="75%"><stop offset="0" stop-color="#fff0a6"/><stop offset=".35" stop-color="#ffd65a"/><stop offset=".72" stop-color="#ff8a1e"/><stop offset="1" stop-color="#b71919"/></radialGradient><filter id="s" x="-20%" y="-20%" width="140%" height="140%"><feDropShadow dx="0" dy="8" stdDeviation="5" flood-color="#000" flood-opacity=".38"/></filter></defs><circle cx="64" cy="64" r="58" fill="url(#g)"/><circle cx="64" cy="64" r="48" fill="none" stroke="#fff4af" stroke-opacity=".45" stroke-width="4"/><g filter="url(#s)" fill="#fff"><path d="M37 34h39a11 11 0 0 1 11 11v47a4 4 0 0 1-4 4H42a12 12 0 0 1-12-12V41a7 7 0 0 1 7-7zm5 10v38a5 5 0 0 0 5 5h31V45a3 3 0 0 0-3-3H42z"/><path fill="#5b1b00" opacity=".28" d="M48 50h22v6H48zm0 14h24v6H48z"/><path d="M86 24l3 9 9 3-9 3-3 9-3-9-9-3 9-3z"/></g><text x="64" y="116" text-anchor="middle" font-family="Arial, sans-serif" font-weight="900" font-size="16" fill="#fff">BOOK</text></svg>